<svg version="1" xmlns="http://www.w3.org/2000/svg" width="1173.333" height="1173.333" viewBox="0 0 880.000000 880.000000"><path d="M438.5 74.1c-5.4 1.2-16.4 7-17.3 9.1-.2.5-.8.8-1.3.8s-5.5 3-11.1 6.7c-5.7 3.8-11.1 7.2-12 7.8-2.3 1.3-16.1 10.2-25.8 16.6-4.1 2.7-8.2 5.2-9 5.6-.8.4-1.9 1.1-2.5 1.6-.5.4-6.1 4-12.2 8-31.4 20.1-40.6 26-54.2 34.9-8.2 5.3-15.9 10.2-17.2 10.9-1.3.6-2.8 1.6-3.3 2.1-.6.5-4.9 3.3-9.6 6.3-4.7 2.9-9 5.8-9.5 6.3-.6.5-1.6 1.1-2.1 1.3-.6.2-7 4.2-14.3 8.9-7.2 4.7-18.9 12.2-25.9 16.7s-13.2 8.7-13.9 9.3c-.7.5-1.5 1-1.7 1-.3 0-5.2 3-10.8 6.7-5.7 3.8-11.1 7.2-12.1 7.8-6.1 3.5-31.3 20-31.5 20.7-.2.4-.8.8-1.3.8-.6 0-3.7 1.8-6.9 4s-6.4 4-6.9 4c-.6 0-1.1.4-1.1 1 0 .5-.7 1-1.5 1s-1.5.4-1.5.9-1.3 1.4-3 2.1c-1.6.7-3 1.6-3 2 0 .4-1 1.2-2.3 1.7-2.5 1.2-20.4 12.5-22.4 14.3-.7.5-1.7 1-2.3 1-.5 0-1 .4-1 1 0 .5-.5 1-1 1-.6 0-4.4 2.2-8.5 5-4.1 2.7-7.9 5-8.5 5-.5 0-1 .4-1 .8 0 .5-1 1.4-2.3 2.1-1.2.6-3.4 1.9-4.9 2.9-1.4.9-4.8 3-7.4 4.6-2.7 1.6-5.3 3.3-5.9 3.8-2.4 2-8.7 5.8-9.5 5.8-.6 0-1 .3-1 .8 0 .4-2 1.8-4.5 3.2-2.5 1.4-4.5 2.8-4.5 3.2 0 .5-.5.8-1.1.8-1 0-8.5 4.9-12.2 8-2.8 2.3-6.4 9-7.7 14.2-3.7 14.8 7.6 31.4 22.7 33.3 3.2.4 18.1.7 33.1.7 25.2 0 27.3.1 26.7 1.6-.3.9-.9 3.5-1.3 5.7-.7 4.9-.7 353.6 0 358.5 1 5.9 4.7 16.6 6.8 19.2 1 1.4 1.7 2.8 1.4 3.1-.3.3 3.2 4.3 7.8 8.9 11.5 11.5 22.2 17 36.3 18.4 9 1 88.5 1 88.5.1 0-.5.5-.5 1.1-.1 1.5.9 62.9 1.1 62.9.3 0-.4 1.5-.4 3.3 0 4.3.8 77 .6 78.5-.2.6-.4 1.3-.4 1.5 0 .4.7 19.5.9 22.2.3.6-.1 1.2-.1 1.5 0 1.6.6 85 .4 85-.3 0-.5.5-.5 1.1-.1 1.5.9 62.9 1.1 62.9.3 0-.4 1.5-.4 3.3 0 4.3.8 77 .6 78.5-.2.6-.4 1.3-.4 1.5 0 .4.7 19.5.9 22.2.3.6-.1 1.2-.1 1.5 0 1.1.4 84 .5 84 0 0-.3 1.7-.5 3.7-.4 2.1.1 6.8-.7 10.5-1.7 22.7-6.3 38.5-24 43.5-48.9.3-1.4.5-81.9.6-179 0-128.5-.3-177.6-1.2-180.5-.6-2.2-1.1-4.3-1.1-4.7 0-.3 13.2-.7 29.3-.7 16 0 30.3-.2 31.7-.5 6.3-1.4 10.2-3.8 15.4-9.4 9.1-9.8 8.6-28.7-.9-37.4-1.6-1.6-16-11.2-32-21.5-15.9-10.2-37.9-24.4-48.8-31.5-10.9-7-20.1-12.8-20.3-12.8-.3 0-1.2-.6-1.9-1.3-.7-.6-7-4.8-14-9.2-29.4-18.7-36.6-23.6-36-24.5.7-1.2 1-2.6 2-9.5.8-6.1.9-71.6 0-76.5-2.2-13.1-7.3-23.7-15.9-32.7-8.5-9-19.1-15.1-31.1-18-5.6-1.3-22.3-.9-28.6.7-19.5 5-35 18.8-41.7 37-2.9 7.8-3.5 10.9-3.6 17.7-.1 2.9-.5 5.3-.9 5.3-.7 0-4.9-2.5-7.2-4.3-2-1.5-13.6-8.7-14.1-8.7-.3 0-1.4-.9-2.6-2-1.2-1.1-2.8-2-3.5-2-.7 0-1.3-.5-1.3-1 0-.6-.7-1-1.5-1s-1.5-.5-1.5-1c0-.6-.5-1-1-1-1.2 0-15.3-9.2-15.8-10.3-.2-.4-.8-.7-1.3-.7-.6 0-2.2-.9-3.7-1.9-7.2-5-23.3-15.1-24.2-15.1-.6 0-1-.4-1-.9 0-.4-2-1.9-4.5-3.2-2.5-1.3-4.5-2.7-4.5-3.1 0-.5-.4-.8-.9-.8-.8 0-19.7-11.8-23.7-14.7-.5-.4-1.8-1.3-2.7-1.8-.9-.6-7.6-4.8-14.9-9.5-17-11-22.4-12.9-31.3-10.9zm233.8 75.1c4.3 3 6 4.8 7.5 7.8 2.4 5.2 3.1 7.9 2.1 8.5-.5.4-.7 1.1-.4 1.6.9 1.3.8 51.6 0 52.9-.4.7-1 .8-1.4.4-.3-.5-1.5-1.4-2.6-2-3.8-2.2-34-21.7-35.6-23.1-1.2-1-1.7-3.5-1.8-10.6-.1-5-.2-9.7-.2-10.2-.4-15.6 3.7-23.5 13.8-27 5.6-1.9 14.6-1.1 18.6 1.7zm78.2 244.1c2.8 1.4 5.4 4.6 7.2 8.7 1.3 3.1 1.5 24.3 1.5 176.7 0 169.7-.1 173.2-2 177.5-3.2 7-11.3 12.8-16.2 11.5-1.1-.3-2-.2-2 .1 0 1-12.3.8-13.8-.2-.7-.4-1.2-.4-1.2.1 0 .4-3.3.7-7.2.6-4-.2-7.9-.3-8.5-.3H528.8c-.7 0-3.1.1-5.3.3-2.2.2-4.8-.1-5.7-.5-1-.5-1.8-.5-1.8-.1s-4.3.8-9.5.8-9.5-.4-9.5-.8c0-.5-.5-.5-1.2-.1-1.7 1.1-10.8 1.1-10.8.1 0-.5-.5-.5-1.2-.1-1.7 1.1-10.8 1.1-10.8.1 0-.5-.5-.5-1.2-.1-1.7 1.1-10.8 1.1-10.8.1 0-.5-.5-.5-1.2-.1-1.7 1.1-10.8 1.1-10.8 0 0-.5-.5-.5-1.2 0-1.1.8-3.7 1-8.5.5-.7-.1-1-1-.7-2.4.9-3.8 1.2-5.2 1.4-5.2 1.4 0 2-194.7.6-201.5-.4-1.9-.9-4.2-1-5-1.6-8-8.6-20.1-16.1-27.5-6.6-6.6-18-13.6-24.3-15-1.2-.3-3.2-.7-4.4-1-1.3-.3-3.4-.7-4.8-1-3.4-.7-128.7-.6-132.5 0-20.4 3.8-37.5 16.9-45.4 35-4.7 10.8-4.5 5.7-4.8 109.8-.3 66.7 0 99.5.7 103 .6 2.9 1.1 5.9 1.2 6.7 0 .8.5 2.1 1.1 2.8.5.6.6 1.2.1 1.3-.5 0-1.9.2-3.1.3-1.3.2-2.3-.1-2.3-.6s-.5-.6-1.2-.2c-1.7 1.1-13.8 1.1-13.8 0 0-.5-.6-.4-1.2.1-.7.5-4.4.7-8.3.6-3.8-.2-7.6-.3-8.2-.3h-11.5c-.7 0-3.1.1-5.3.3-2.2.2-4.8-.1-5.9-.6-1.4-.7-1.6-.6-1.1.4.5.7.4 1-.2.6-.5-.3-2.5-.9-4.4-1.2-5.6-1-10.4-4.8-13.7-11-1.5-2.7-1.6-19-1.7-176.5 0-107.7.3-174.7.9-176.8.5-1.7 1.3-3.2 1.7-3.2.4 0 .9-1 1.3-2.3.3-1.2 1.7-2.9 3.2-3.9 2.6-1.5 26.1-1.6 307.8-1.6 212.3 0 305.7.3 307.1 1.1zM389.8 550.9c5.1 2.6 8.9 6.6 10.3 10.9 1 2.8 1.3 25.2 1.3 94.7-.1 50-.3 92.6-.6 94.5-1 6.4-5 11.4-11.8 14.7-3.1 1.5-9.7 1.6-64.8 1.6h-61.4l-4.8-2.4c-3.3-1.6-5.7-3.8-7.7-6.9l-2.8-4.5-.3-94.8c-.2-84.2 0-95.1 1.4-97.8 2.5-4.9 5.6-8 9.9-10 3.7-1.7 7.9-1.9 65.8-1.9 58.7 0 62 .1 65.5 1.9z"/><path d="M553.8 447.5c-.2.2-1.9.6-3.8.8-1.9.3-3.5.6-3.5.7 0 .1-1.1.3-2.5.6-3.3.5-19 8.4-19 9.5 0 .5-.4.9-1 .9-1 0-8 6.9-11.5 11.5-5.8 7.6-9.9 18-11.2 28.5-.8 6.7-.8 71.2 0 76.5 2.1 13.7 9 26.4 19.5 36 4.9 4.3 6.3 5.3 14.1 9.1 11.5 5.7 14.9 6 58.1 5.9 38.1-.2 39.7-.3 46-2.5 16.2-5.6 26.2-13.6 34.5-27.5 7.2-12.1 8.1-19.3 7.9-62.5-.1-19.5-.5-36.6-.7-38-2.4-11.7-7.4-21.8-15.7-31.3-2.9-3.3-16.3-12.7-18.2-12.7-.8 0-1.8-.4-2.3-.9-1.4-1.3-11.2-4.1-11.9-3.4-.3.4-.6.2-.6-.4 0-.8-77.4-1.6-78.2-.8zm73.9 40.8c4.6 1.4 10.1 6.2 12 10.5 1.4 3.1 1.6 8.7 1.7 36.7.1 18.1-.2 34.8-.6 36.9-1.1 4.7-5.7 10.9-10.1 13.2-2.8 1.5-7.3 1.7-38.7 1.9-24 .1-36.3-.2-38-.9-4.9-2.2-8.1-5-10.7-9.3l-2.6-4.4v-34.4c-.1-30.2.1-34.8 1.7-38.8 2-5.2 6.9-9.7 12.4-11.3 4.8-1.4 68.3-1.5 72.9-.1z"/></svg>